<?xml version="1.0" encoding="UTF-8"?>
<svg id="Layer_1" data-name="Layer 1" xmlns="http://www.w3.org/2000/svg" viewBox="0 0 76.82 70.43">
  <defs>
    <style>
      .cls-1 {
        fill: #6f2a33;
        stroke-width: 0px;
      }
    </style>
  </defs>
  <path class="cls-1" d="m76.84,38.46c0,.44,0,.87-.02,1.31-.66-19.9-17.02-35.83-37.08-35.83S2.63,20.55,2.63,41.03c0,11.95,5.65,22.58,14.43,29.36C6.77,63.5,0,51.77,0,38.46,0,17.24,17.21.04,38.42.04s38.42,17.21,38.42,38.42Z"/>
  <path class="cls-1" d="m59,14.58c-1.38-.18-2.89-.35-4.51-.51-1.64-.16-3.25-.24-4.85-.24-3.23,0-5.61.37-7.14,1.11-1.54.73-2.41,1.78-2.61,3.13,1.28-.32,2.45-.56,3.53-.72,1.08-.15,2.28-.27,3.62-.36,1.33-.08,2.98-.12,4.93-.12-.28,1.6-.67,3.59-1.19,5.99-.53,2.38-1.1,4.99-1.74,7.79-.64,2.82-1.31,5.64-2,8.5-.7,2.85-1.4,5.52-2.09,8.01-.7,2.49-1.37,4.61-2,6.37-.3.82-.6,1.55-.88,2.19-.3-.56-.61-1.12-.94-1.71-1.38-2.45-2.91-4.99-4.58-7.63,1.48-.12,2.74-.2,3.78-.24,1.03-.04,1.92-.06,2.69-.06h2.09c-.44-1.15-1.21-1.96-2.3-2.42-1.1-.46-2.4-.68-3.92-.68-.68,0-1.38.04-2.09.12-.72.08-1.46.18-2.22.3-2.02-3.07-4.12-6.05-6.25-8.95-2.13-2.89-4.13-5.46-5.98-7.72-1.85-2.25-3.39-3.96-4.63-5.11-1.16-1.12-2.11-1.68-2.88-1.68-.44,0-.92.17-1.46.51-.55.34-1.11.81-1.71,1.41.4.32.9,1.16,1.53,2.54.61,1.38,1.27,3.1,1.97,5.18.69,2.07,1.38,4.34,2.06,6.81.67,2.48,1.3,5,1.88,7.57.58,2.57,1.03,5.02,1.37,7.33.35,2.31.51,4.34.51,6.1,0,1.51-.16,2.69-.51,3.53-.34.83-.9,1.25-1.71,1.25-1.03,0-2.21-.71-3.52-2.15-1.32-1.43-2.76-3.67-4.3-6.69l-.6.6c1.2,3.19,2.73,5.8,4.57,7.83,1.85,2.03,3.79,3.05,5.78,3.05,1.63,0,2.82-.73,3.55-2.19.74-1.45,1.11-3.39,1.11-5.82,0-1.28-.09-2.68-.27-4.19-.18-1.51-.44-3.08-.75-4.72,1.76-.28,3.36-.51,4.82-.68.69-.09,1.37-.17,2.01-.26-.34.75-.62,1.61-.85,2.55-.36,1.53-.54,3.08-.54,4.63,0,2.23.34,3.91,1.02,5.03.67,1.11,1.52,1.85,2.54,2.21,1.01.36,1.98.54,2.9.54,1.2,0,2.35-.24,3.44-.71.21-.09.43-.2.63-.32,1.15,2.48,2.24,4.93,3.28,7.35.88-.52,1.44-1.06,1.68-1.65.24-.58.36-1.06.36-1.46,0-1.12-.41-2.64-1.23-4.55-.33-.77-.69-1.59-1.11-2.44.92-1.23,1.84-2.9,2.76-5.01.96-2.11,1.85-4.52,2.7-7.24.83-2.71,1.61-5.48,2.33-8.31.71-2.84,1.34-5.5,1.85-8.01.52-2.51.91-4.65,1.2-6.43.27-1.78.42-2.93.42-3.44,0-.45-.1-.94-.3-1.5-.21-.56-.53-.99-.96-1.32.63,0,1.31,0,2-.03.69-.02,1.45-.03,2.24-.03.63,0,1.46-.1,2.45-.3,1-.2,1.72-.67,2.16-1.44-.72-.15-1.77-.33-3.14-.51Zm-31.4,30.31c-1.34.34-2.56.64-3.68.92-.6-2.64-1.3-5.3-2.09-7.98s-1.65-5.26-2.54-7.69c-.9-2.43-1.75-4.56-2.54-6.4,1.23.75,2.66,2.1,4.27,4.04,1.61,1.93,3.31,4.28,5.11,7.05,1.79,2.78,3.63,5.81,5.5,9.12-1.36.28-2.7.59-4.04.93Zm10.02,14.94c-1.24,0-2.17-.5-2.81-1.5-.64-.99-.96-2.39-.96-4.18,0-1.35.18-2.83.54-4.42.04-.18.08-.36.14-.54,1.41,2.69,2.79,5.43,4.15,8.23.3.61.59,1.22.87,1.82-.6.39-1.24.59-1.92.59Z"/>
</svg>